<?xml version="1.0" standalone="no"?>
<!DOCTYPE svg PUBLIC "-//W3C//DTD SVG 20010904//EN"
 "http://www.w3.org/TR/2001/REC-SVG-20010904/DTD/svg10.dtd">
<svg version="1.0" xmlns="http://www.w3.org/2000/svg"
 width="700.000000pt" height="700.000000pt" viewBox="0 0 700.000000 700.000000"
 preserveAspectRatio="xMidYMid meet">
<metadata>
Created by potrace 1.11, written by Peter Selinger 2001-2013
</metadata>
<g transform="translate(0.000000,700.000000) scale(0.100000,-0.100000)"
fill="#000000" stroke="none">
<path d="M3278 6995 c-1 -1 -41 -5 -88 -9 -47 -4 -96 -8 -110 -10 -14 -2 -46
-7 -71 -10 -51 -7 -66 -10 -154 -25 -86 -16 -91 -17 -185 -41 -47 -12 -92 -23
-100 -25 -127 -29 -415 -138 -595 -226 -721 -352 -1279 -912 -1633 -1641 -29
-59 -52 -110 -52 -113 0 -2 -11 -28 -24 -57 -52 -116 -142 -389 -162 -491 -2
-10 -6 -27 -9 -37 -3 -10 -8 -29 -10 -42 -3 -13 -11 -57 -20 -98 -8 -41 -17
-90 -20 -107 -3 -18 -7 -45 -10 -60 -2 -16 -7 -51 -10 -79 l-5 -50 158 42
c182 48 516 138 817 219 116 31 302 81 415 110 113 30 219 59 235 64 17 5 91
26 165 45 74 19 245 65 380 101 135 37 252 68 260 70 8 2 83 21 165 43 83 23
186 51 230 62 44 12 154 42 245 66 91 25 173 47 183 49 10 2 50 13 90 24 40
11 108 29 152 41 44 12 139 37 210 57 72 19 186 50 255 68 69 18 152 41 185
50 97 26 209 56 225 60 8 2 58 15 110 29 52 14 203 54 335 90 132 35 344 92
470 126 127 34 237 63 245 65 8 2 107 28 220 59 113 30 281 75 374 100 92 25
171 47 174 50 5 5 -77 116 -133 181 -15 17 -45 52 -68 79 -52 60 -253 257
-327 321 -30 26 -67 58 -82 71 -193 167 -619 422 -861 514 -28 11 -61 24 -72
29 -179 76 -496 163 -720 197 -27 4 -52 8 -55 9 -3 1 -41 5 -85 9 -44 5 -89
10 -100 13 -22 5 -531 13 -537 8z"/>
<path d="M6180 5344 c-129 -36 -311 -85 -405 -109 -93 -25 -219 -59 -280 -75
-60 -17 -195 -53 -300 -81 -104 -28 -212 -57 -240 -64 -113 -31 -866 -233
-895 -240 -21 -5 -238 -63 -280 -75 -101 -28 -258 -70 -357 -96 -70 -18 -113
-33 -113 -41 0 -7 12 -57 26 -111 14 -53 39 -144 54 -202 59 -222 82 -307 101
-380 12 -41 22 -82 24 -90 2 -8 33 -125 70 -260 36 -135 77 -288 91 -340 14
-52 31 -117 39 -145 15 -50 203 -754 210 -784 3 -9 25 -92 50 -186 64 -236 74
-274 180 -670 109 -406 107 -400 232 -865 52 -195 95 -359 96 -365 3 -15 20
-24 32 -17 5 3 15 7 20 8 26 5 230 80 315 116 95 40 294 137 360 175 148 86
259 157 360 232 733 541 1231 1348 1379 2236 40 242 46 315 45 595 0 210 -4
294 -19 410 -12 92 -16 117 -19 135 -2 11 -11 61 -21 110 -71 384 -219 772
-433 1133 -36 61 -71 112 -77 111 -5 0 -116 -30 -245 -65z"/>
<path d="M3118 4524 c-3 -2 -15 -7 -27 -9 -11 -3 -29 -7 -40 -9 -10 -2 -49
-13 -87 -25 -38 -11 -116 -32 -174 -46 -58 -15 -125 -33 -150 -40 -25 -8 -130
-36 -235 -64 -104 -28 -291 -78 -415 -111 -124 -34 -233 -63 -242 -65 -10 -2
-59 -15 -110 -29 -51 -14 -127 -34 -168 -45 -41 -11 -217 -58 -390 -105 -389
-104 -480 -129 -645 -172 -72 -19 -179 -48 -240 -65 -60 -16 -117 -31 -125
-33 -8 -2 -27 -7 -42 -11 l-27 -7 4 -236 c2 -131 6 -250 8 -267 3 -16 8 -59
12 -95 4 -36 9 -72 10 -81 2 -9 6 -40 10 -70 3 -30 10 -70 15 -89 5 -19 12
-48 14 -65 28 -156 113 -435 188 -615 187 -449 450 -835 799 -1176 83 -81 127
-120 229 -208 34 -29 205 -155 260 -191 25 -17 47 -32 50 -35 3 -3 17 -12 32
-20 14 -8 77 -44 140 -80 393 -227 843 -377 1308 -435 208 -26 680 -26 842 0
13 2 46 7 73 10 94 13 118 17 235 41 41 9 78 19 82 23 7 6 -27 147 -72 301 -6
19 -23 85 -40 147 -16 61 -39 145 -50 187 -11 42 -29 110 -40 151 -11 41 -29
109 -40 150 -38 143 -263 981 -310 1155 -17 63 -32 122 -34 130 -2 8 -32 119
-66 245 -34 127 -71 262 -81 300 -17 66 -45 172 -102 385 -14 52 -66 246 -116
430 -49 184 -117 439 -152 565 -34 127 -64 240 -67 253 -5 23 -16 35 -24 26z"/>
</g>
</svg>
