<?xml version="1.0" encoding="UTF-8" standalone="no"?>
<!DOCTYPE svg PUBLIC "-//W3C//DTD SVG 1.1//EN" "http://www.w3.org/Graphics/SVG/1.1/DTD/svg11.dtd">
<svg width="100%" height="100%" viewBox="0 0 2000 2000" version="1.1" xmlns="http://www.w3.org/2000/svg" xmlns:xlink="http://www.w3.org/1999/xlink" xml:space="preserve" xmlns:serif="http://www.serif.com/" style="fill-rule:evenodd;clip-rule:evenodd;stroke-linejoin:round;stroke-miterlimit:2;">
    <g transform="matrix(1,0,0,1,-4100,0)">
        <rect id="Artboard3" x="4100" y="0" width="2000" height="2000" style="fill:none;"/>
        <clipPath id="_clip1">
            <rect id="Artboard31" serif:id="Artboard3" x="4100" y="0" width="2000" height="2000"/>
        </clipPath>
        <g clip-path="url(#_clip1)">
            <g transform="matrix(1.24143,0,0,1.24143,3858.57,-241.429)">
                <path d="M1208.51,1778.17C1142.02,1796.03 1072.11,1805.52 1000,1805.52C555.42,1805.52 194.477,1444.58 194.477,1000C194.477,978.304 195.336,956.808 197.047,935.588L930.109,739.165L1208.51,1778.17Z" style="fill:rgb(48,78,94);"/>
            </g>
            <g transform="matrix(1.24143,0,0,1.24143,5315.18,-587.516)">
                <path d="M489.702,821.559C579.575,951.492 632.19,1109.04 632.19,1278.78C632.19,1651.25 378.841,1965.01 35.176,2056.95L-243.224,1017.95C-243.224,1017.95 489.702,821.559 489.702,821.559Z" style="fill:rgb(24,14,12);"/>
            </g>
            <g transform="matrix(1.24143,0,0,1.24143,3858.57,-241.429)">
                <path d="M197.047,935.588C229.904,521.051 577.115,194.477 1000,194.477C1274.84,194.477 1517.71,332.419 1663.04,542.778L197.047,935.588Z" style="fill:rgb(195,167,65);"/>
            </g>
            <g transform="matrix(0.294563,0.294563,-0.294563,0.294563,5100,410.874)">
                <path d="M1208.51,1778.17C1142.02,1796.03 1072.11,1805.52 1000,1805.52C555.42,1805.52 194.477,1444.58 194.477,1000C194.477,978.304 195.336,956.808 197.047,935.588L930.109,739.165L1208.51,1778.17Z" style="fill:rgb(94,54,48);"/>
            </g>
            <g transform="matrix(0.294563,0.294563,-0.294563,0.294563,5527.74,674.376)">
                <path d="M489.702,821.559C579.575,951.492 632.19,1109.04 632.19,1278.78C632.19,1651.25 378.841,1965.01 35.176,2056.95L-243.224,1017.95C-243.224,1017.95 489.702,821.559 489.702,821.559Z" style="fill:rgb(195,167,65);"/>
            </g>
            <g transform="matrix(0.294563,0.294563,-0.294563,0.294563,5100,410.874)">
                <path d="M197.047,935.588C229.904,521.051 577.115,194.477 1000,194.477C1274.84,194.477 1517.71,332.419 1663.04,542.778L197.047,935.588Z" style="fill:rgb(177,170,147);"/>
            </g>
        </g>
    </g>
</svg>
