<?xml version="1.0" encoding="UTF-8" standalone="no"?>
<!DOCTYPE svg PUBLIC "-//W3C//DTD SVG 1.1//EN" "http://www.w3.org/Graphics/SVG/1.1/DTD/svg11.dtd">
<svg width="100%" height="100%" viewBox="0 0 2000 2000" version="1.1" xmlns="http://www.w3.org/2000/svg" xmlns:xlink="http://www.w3.org/1999/xlink" xml:space="preserve" xmlns:serif="http://www.serif.com/" style="fill-rule:evenodd;clip-rule:evenodd;stroke-linejoin:round;stroke-miterlimit:2;">
    <g transform="matrix(1,0,0,1,-2053,0)">
        <g id="Artboard4" transform="matrix(1,0,0,1,-4097,0)">
            <rect x="6150" y="0" width="2000" height="2000" style="fill:none;"/>
            <clipPath id="_clip1">
                <rect x="6150" y="0" width="2000" height="2000"/>
            </clipPath>
            <g clip-path="url(#_clip1)">
                <g transform="matrix(1,0,0,1,4097,0)">
                    <path d="M3287.64,1972.27C3212.38,1990.4 3133.8,2000 3053,2000C2501.09,2000 2053,1551.91 2053,1000C2053,981.566 2053.5,963.248 2054.49,944.984C2057.17,945.168 2059.92,944.919 2062.66,944.186L2948.56,706.81L3287.64,1972.27ZM3890.13,453.096C3993.11,610.318 4053,798.22 4053,1000C4053,1453.67 3750.24,1837.19 3335.94,1959.34L2996.85,693.869L3882.58,456.539C3885.35,455.798 3887.89,454.618 3890.13,453.096ZM2058.62,893.506C2111.87,391.56 2537.07,-0 3053,-0C3384.65,-0 3678.8,161.795 3860.73,410.632L2058.62,893.506Z"/>
                </g>
            </g>
        </g>
    </g>
</svg>
